{
    "asset" : {
        "generator" : "Khronos glTF Blender I/O v1.0.5",
        "version" : "2.0"
    },
    "scene" : 0,
    "scenes" : [
        {
            "name" : "Scene",
            "nodes" : [
                2
            ]
        }
    ],
    "nodes" : [
        {
            "mesh" : 0,
            "name" : "Object_0"
        },
        {
            "mesh" : 1,
            "name" : "Object_1"
        },
        {
            "children" : [
                0,
                1
            ],
            "name" : "Node",
            "rotation" : [
                1,
                0,
                0,
                -1.3435885648505064e-07
            ]
        }
    ],
    "materials" : [
        {
            "doubleSided" : true,
            "name" : "mat0",
            "pbrMetallicRoughness" : {
                "baseColorFactor" : [
                    0.6038273572921753,
                    0.6038273572921753,
                    0.6038273572921753,
                    1
                ],
                "metallicFactor" : 0.5,
                "roughnessFactor" : 0.5
            }
        },
        {
            "doubleSided" : true,
            "emissiveFactor" : [
                1,
                1,
                1
            ],
            "name" : "mat1",
            "pbrMetallicRoughness" : {
                "baseColorFactor" : [
                    1,
                    1,
                    1,
                    1
                ],
                "metallicFactor" : 0.5,
                "roughnessFactor" : 0.5
            }
        }
    ],
    "meshes" : [
        {
            "name" : "Mesh_0",
            "primitives" : [
                {
                    "attributes" : {
                        "POSITION" : 0,
                        "NORMAL" : 1,
                        "TEXCOORD_0" : 2
                    },
                    "indices" : 3,
                    "material" : 0
                },
                {
                    "attributes" : {
                        "POSITION" : 4,
                        "NORMAL" : 5,
                        "TEXCOORD_0" : 6
                    },
                    "indices" : 7,
                    "material" : 0
                }
            ]
        },
        {
            "name" : "Mesh_1",
            "primitives" : [
                {
                    "attributes" : {
                        "POSITION" : 8,
                        "NORMAL" : 9,
                        "TEXCOORD_0" : 10
                    },
                    "indices" : 11,
                    "material" : 1
                }
            ]
        }
    ],
    "accessors" : [
        {
            "bufferView" : 0,
            "componentType" : 5126,
            "count" : 65535,
            "max" : [
                49.691749572753906,
                14.56009578704834,
                32.62178039550781
            ],
            "min" : [
                -49.826229095458984,
                -14.444183349609375,
                -32.62178039550781
            ],
            "type" : "VEC3"
        },
        {
            "bufferView" : 1,
            "componentType" : 5126,
            "count" : 65535,
            "type" : "VEC3"
        },
        {
            "bufferView" : 2,
            "componentType" : 5126,
            "count" : 65535,
            "type" : "VEC2"
        },
        {
            "bufferView" : 3,
            "componentType" : 5123,
            "count" : 65535,
            "type" : "SCALAR"
        },
        {
            "bufferView" : 4,
            "componentType" : 5126,
            "count" : 5403,
            "max" : [
                -33.21575927734375,
                14.209442138671875,
                28.555301666259766
            ],
            "min" : [
                -48.873870849609375,
                -11.867854118347168,
                -28.555301666259766
            ],
            "type" : "VEC3"
        },
        {
            "bufferView" : 5,
            "componentType" : 5126,
            "count" : 5403,
            "type" : "VEC3"
        },
        {
            "bufferView" : 6,
            "componentType" : 5126,
            "count" : 5403,
            "type" : "VEC2"
        },
        {
            "bufferView" : 7,
            "componentType" : 5123,
            "count" : 5403,
            "type" : "SCALAR"
        },
        {
            "bufferView" : 8,
            "componentType" : 5126,
            "count" : 4674,
            "max" : [
                39.956321716308594,
                9.872197151184082,
                28.536081314086914
            ],
            "min" : [
                -45.314334869384766,
                -11.843005180358887,
                -27.51474380493164
            ],
            "type" : "VEC3"
        },
        {
            "bufferView" : 9,
            "componentType" : 5126,
            "count" : 4674,
            "type" : "VEC3"
        },
        {
            "bufferView" : 10,
            "componentType" : 5126,
            "count" : 4674,
            "type" : "VEC2"
        },
        {
            "bufferView" : 11,
            "componentType" : 5123,
            "count" : 4674,
            "type" : "SCALAR"
        }
    ],
    "bufferViews" : [
        {
            "buffer" : 0,
            "byteLength" : 786420,
            "byteOffset" : 0
        },
        {
            "buffer" : 0,
            "byteLength" : 786420,
            "byteOffset" : 786420
        },
        {
            "buffer" : 0,
            "byteLength" : 524280,
            "byteOffset" : 1572840
        },
        {
            "buffer" : 0,
            "byteLength" : 131070,
            "byteOffset" : 2097120
        },
        {
            "buffer" : 0,
            "byteLength" : 64836,
            "byteOffset" : 2228192
        },
        {
            "buffer" : 0,
            "byteLength" : 64836,
            "byteOffset" : 2293028
        },
        {
            "buffer" : 0,
            "byteLength" : 43224,
            "byteOffset" : 2357864
        },
        {
            "buffer" : 0,
            "byteLength" : 10806,
            "byteOffset" : 2401088
        },
        {
            "buffer" : 0,
            "byteLength" : 56088,
            "byteOffset" : 2411896
        },
        {
            "buffer" : 0,
            "byteLength" : 56088,
            "byteOffset" : 2467984
        },
        {
            "buffer" : 0,
            "byteLength" : 37392,
            "byteOffset" : 2524072
        },
        {
            "buffer" : 0,
            "byteLength" : 9348,
            "byteOffset" : 2561464
        }
    ],
    "buffers" : [
        {
            "byteLength" : 2570812,
            "uri" : "data:application/octet-stream;base64,"
        }
    ]
}
